<?xml version="1.0" encoding="iso-8859-1"?>
<!-- Generator: Adobe Illustrator 19.0.0, SVG Export Plug-In . SVG Version: 6.00 Build 0)  -->
<svg version="1.1" id="Layer_1" xmlns="http://www.w3.org/2000/svg" xmlns:xlink="http://www.w3.org/1999/xlink" x="0px" y="0px"
	 viewBox="0 0 512.001 512.001" style="enable-background:new 0 0 512.001 512.001;" xml:space="preserve">
<g>
	<path style="fill:#A86B38;" d="M78.103,50.544c-6.476-6.683-17.335-9.26-33.175-7.882C34.277,43.589,29.235,48.89,26.88,53.174
		c-6.668,12.132,1.175,28.502,2.815,31.661c1.26,2.425,3.596,4.105,6.295,4.529c0.443,0.069,0.886,0.103,1.329,0.103
		c2.248,0,4.427-0.883,6.048-2.491c7.272-7.211,17.841-10.502,31.46-9.784c4.467,0.229,8.45-3.071,8.983-7.566
		C84.964,59.91,81.344,53.886,78.103,50.544z"/>
	<path style="fill:#A86B38;" d="M464.661,369.712c-0.549-0.391-55.011-39.659-78.632-89.76c-1.897-4.023-6.556-5.934-10.729-4.4
		c-2.531,0.929-4.377,2.935-5.182,5.328c-7.636,0.628-15.079,1.003-22.221,1.118c-1.018,0.016-2.046,0.221-2.995,0.591
		c-4.09,1.591-6.323,6.012-5.178,10.248c0.205,0.757,5.15,18.762,17.231,39.106c14.533,24.471,33.325,41.912,54.713,50.9
		l-9.763,33.395c-8.218,5.681-30.03,22.597-31.819,43.196c-0.208,2.398,0.599,4.774,2.225,6.549
		c1.627,1.774,3.925,2.784,6.331,2.784h43.52c0.868,0,1.731-0.132,2.557-0.389l0.505-0.158c2.267-0.707,4.14-2.322,5.174-4.459
		c1.358-2.808,8.806-17.167,22.023-24.122c2.281-1.201,3.903-3.364,4.416-5.89l11.253-55.331
		C468.766,375.094,467.42,371.682,464.661,369.712z"/>
	<path style="fill:#A86B38;" d="M277.628,271.734c-21.127-8.181-28.603-18.541-29.162-19.351c-1.891-3.265-5.635-4.808-9.317-3.947
		c-3.702,0.864-6.332,4.168-6.559,7.962l-12.192,204.197c-0.141,2.363,0.699,4.679,2.322,6.401c1.623,1.723,3.886,2.699,6.252,2.699
		h27.417c4.413,0,8.108-3.344,8.547-7.735l18.137-181.363C283.458,276.756,281.229,273.129,277.628,271.734z"/>
	<path style="fill:#A86B38;" d="M319.998,109.059l-18.21-12.998c-0.101-0.072-0.202-0.141-0.305-0.207
		c-16.19-10.538-33.985-18.004-52.893-22.191c-34.033-7.536-96.937-19.963-135.785-18.55c-3.155,0.116-5.992,1.952-7.389,4.784
		l-1.546,3.132c-1.506,3.052-1.069,6.706,1.118,9.315c3.913,4.675,6.75,10.263,7.78,15.332c0.723,3.555,3.602,6.274,7.192,6.792
		c2.11,0.307,4.191-0.189,5.895-1.293c23.791,4.972,119.629,24.773,152.57,28.123c3.21,0.326,7.173,0.67,11.762,1.07
		c6.62,0.575,14.86,1.291,23.907,2.226c0.123,0.013,0.275,0.024,0.399,0.032c0.173,0.01,0.346,0.016,0.518,0.016
		c3.619,0,6.876-2.279,8.095-5.727C324.383,115.303,323.115,111.284,319.998,109.059z"/>
</g>
<path style="fill:#FF9F34;" d="M480.992,326.854c29.97-21.382,43.903-77.724,15.606-141.619
	c-28.646-64.685-152.176-75.405-204.925-79.984c-4.521-0.392-8.424-0.731-11.509-1.045c-32.911-3.347-134.907-24.525-153.169-28.346
	c-6.565-15.789-21.947-30.515-37.206-29.834c-6.567,0.299-12.241,3.075-16.404,8.031c-1.49,1.773-2.706,3.768-3.719,5.882
	c-15.727,0.295-28.564,5.194-38.192,14.628c-16.445,16.114-17.402,39.942-17.412,45.026c-2.504,15.127-8.101,41.406-12.928,49.853
	c-1.543,2.699-1.507,6.021,0.095,8.686c5.631,9.373,18.384,23.405,33.074,23.405c4.035,0,8.216-1.059,12.435-3.563
	c5.48-3.254,13.105-8.884,20.925-15.022l67.765,41.303l43.071,78.824l17.962,122.554c-4.626,5.457-14.345,17.469-22.435,31.087
	c-1.577,2.655-1.607,5.952-0.08,8.636c1.528,2.683,4.377,4.342,7.466,4.342h47.564c4.546,0,8.303-3.54,8.574-8.078l11.099-185.893
	c15.186,10.714,43.927,23.484,94.7,23.482c9.933,0,20.723-0.491,32.409-1.581c8.097,14.502,18.959,29.232,32.562,44.116
	c17.228,18.851,34.038,32.555,41.854,38.577l-9.401,46.217c-17.772,11.179-26.136,30.324-26.506,31.185
	c-1.137,2.654-0.866,5.701,0.724,8.112c1.591,2.41,4.283,3.861,7.172,3.861h46.89c3.776,0,7.109-2.465,8.214-6.076l28.134-91.905
	c0.726-2.371,0.392-4.94-0.917-7.047L480.992,326.854z"/>
<path style="fill:#DA7A27;" d="M504.482,364.67l-23.489-37.817c29.97-21.382,43.903-77.724,15.606-141.619
	c-23.411-52.864-110.189-69.684-169.919-76.565c17.732,7.102,43.304,17.27,45.128,18.198c6.543,3.326,13.321,6.164,20.292,8.459
	c33.295,10.964,62.33,27.622,73.739,53.386c29.072,65.646,10.814,121.223-19.693,135.196l28.134,45.293l-30.764,100.494h25.536
	c3.776,0,7.109-2.465,8.214-6.076l28.134-91.905C506.124,369.345,505.79,366.776,504.482,364.67z"/>
<path style="fill:#A86B38;" d="M402.938,158.585c-4.492,4.774-9.809,0.273-14.583-4.219c-4.774-4.492-3.353-17.127,1.138-21.9
	c4.492-4.774,10.356,0.123,15.128,4.614C409.396,141.573,407.43,153.812,402.938,158.585z"/>
<path style="fill:#FFDCAF;" d="M175.585,297.751c0.301-1.626,15.466-104.691-85.068-146.894
	c-3.303,8.174-22.857,32.095-22.857,32.095l67.765,41.303L175.585,297.751z"/>
<g>
	<path style="fill:#A86B38;" d="M187.638,125.769c-4.492,4.774-9.81,0.273-14.583-4.219c-4.774-4.492-3.353-17.127,1.138-21.9
		s10.356,0.123,15.128,4.614C194.095,108.756,192.13,120.995,187.638,125.769z"/>
	<path style="fill:#A86B38;" d="M378.902,228.874c0,6.555-6.957,6.921-13.511,6.921c-6.555,0-14.18-10.174-14.18-16.728
		s7.625-7.008,14.18-7.008C371.945,212.059,378.902,222.32,378.902,228.874z"/>
</g>
<path style="fill:#2B2B2B;" d="M54.139,128.03c-5.486,0-9.95-4.456-9.95-9.932c0-5.476,4.464-9.932,9.95-9.932
	s9.95,4.456,9.95,9.932C64.09,123.574,59.625,128.03,54.139,128.03z"/>
<g>
	<path style="fill:#A86B38;" d="M257.675,136.699c0,6.555-6.957,6.921-13.511,6.921c-6.555,0-14.18-10.174-14.18-16.728
		s7.625-7.008,14.18-7.008C250.719,119.884,257.675,130.145,257.675,136.699z"/>
	<path style="fill:#A86B38;" d="M224.452,129.069c0,6.555-6.957,6.921-13.511,6.921c-6.555,0-14.18-10.174-14.18-16.728
		s7.625-7.008,14.18-7.008C217.496,112.254,224.452,122.515,224.452,129.069z"/>
	<path style="fill:#A86B38;" d="M252.143,162.383c0,6.555-6.957,6.921-13.511,6.921c-6.555,0-14.18-10.174-14.18-16.728
		c0-6.555,7.625-7.008,14.18-7.008C245.187,145.567,252.143,155.828,252.143,162.383z"/>
	<path style="fill:#A86B38;" d="M183.413,180.152c0,6.555-6.957,6.921-13.511,6.921c-6.555,0-14.18-10.174-14.18-16.728
		s7.625-7.008,14.18-7.008C176.455,163.338,183.413,173.597,183.413,180.152z"/>
	<path style="fill:#A86B38;" d="M165.409,117.201c0,6.555-6.957,6.921-13.511,6.921s-14.18-10.174-14.18-16.728
		s7.625-7.008,14.18-7.008C158.452,100.385,165.409,110.646,165.409,117.201z"/>
	<path style="fill:#A86B38;" d="M479.103,209.932c0,6.555-6.957,6.921-13.511,6.921c-6.555,0-14.18-10.174-14.18-16.728
		s7.625-7.008,14.18-7.008C472.147,193.118,479.103,203.378,479.103,209.932z"/>
	<path style="fill:#A86B38;" d="M214.827,167.26c-4.492,4.774-9.81,0.273-14.583-4.219c-4.774-4.492-3.353-17.127,1.138-21.9
		c4.492-4.774,10.356,0.123,15.128,4.614C221.286,150.248,219.319,162.488,214.827,167.26z"/>
	<path style="fill:#A86B38;" d="M438.561,180.725c-4.492,4.774-9.81,0.273-14.583-4.219c-4.774-4.492-3.353-17.127,1.138-21.9
		c4.492-4.774,10.356,0.123,15.128,4.614C445.018,163.712,443.052,175.952,438.561,180.725z"/>
	<path style="fill:#A86B38;" d="M138.642,143.116c-2.034-6.23,4.466-8.739,10.696-10.773s16.637,5.271,18.672,11.501
		c2.034,6.23-5.074,9.028-11.304,11.062C150.474,156.941,140.676,149.347,138.642,143.116z"/>
	<path style="fill:#A86B38;" d="M191.178,162.472c-4.492,4.774-9.81,0.273-14.582-4.219c-4.774-4.492-3.353-17.127,1.138-21.9
		c4.492-4.774,10.356,0.123,15.128,4.614C197.635,145.46,195.67,157.698,191.178,162.472z"/>
	<path style="fill:#A86B38;" d="M343.12,150.163c0,6.555-6.957,6.921-13.511,6.921c-6.555,0-14.18-10.174-14.18-16.728
		s7.625-7.008,14.18-7.008C336.164,133.348,343.12,143.609,343.12,150.163z"/>
	<path style="fill:#A86B38;" d="M309.898,142.533c0,6.555-6.957,6.921-13.511,6.921c-6.555,0-14.18-10.174-14.18-16.728
		c0-6.555,7.625-7.008,14.18-7.008C302.941,125.718,309.898,135.979,309.898,142.533z"/>
	<path style="fill:#A86B38;" d="M337.589,175.847c0,6.555-6.957,6.921-13.511,6.921c-6.555,0-14.18-10.174-14.18-16.728
		s7.625-7.008,14.18-7.008C330.632,159.031,337.589,169.292,337.589,175.847z"/>
	<path style="fill:#A86B38;" d="M300.272,180.725c-4.492,4.774-9.809,0.273-14.583-4.219c-4.774-4.492-3.353-17.127,1.138-21.9
		c4.492-4.774,10.356,0.123,15.128,4.614C306.731,163.712,304.764,175.952,300.272,180.725z"/>
	<path style="fill:#A86B38;" d="M276.623,165.665c-4.492,4.774-9.81,0.273-14.583-4.219c-4.774-4.492-3.353-17.127,1.138-21.9
		c4.492-4.774,10.356,0.123,15.128,4.614C283.08,148.652,281.115,160.891,276.623,165.665z"/>
	<path style="fill:#A86B38;" d="M272.916,192.021c0,6.555-6.957,6.921-13.511,6.921s-14.18-10.174-14.18-16.728
		s7.625-7.008,14.18-7.008C265.958,175.205,272.916,185.466,272.916,192.021z"/>
	<path style="fill:#A86B38;" d="M238.787,188.345c0,6.555-6.957,6.921-13.511,6.921c-6.555,0-14.18-10.174-14.18-16.728
		s7.625-7.008,14.18-7.008C231.83,171.53,238.787,181.791,238.787,188.345z"/>
	<path style="fill:#A86B38;" d="M210.607,235.753c0,6.555-6.957,6.921-13.511,6.921c-6.555,0-14.18-10.174-14.18-16.728
		c0-6.555,7.625-7.008,14.18-7.008C203.65,218.939,210.607,229.198,210.607,235.753z"/>
	<path style="fill:#A86B38;" d="M376.039,162.031c0,6.555-6.957,6.921-13.511,6.921c-6.555,0-14.18-10.174-14.18-16.728
		s7.625-7.008,14.18-7.008C369.082,145.217,376.039,155.476,376.039,162.031z"/>
	<path style="fill:#A86B38;" d="M328.853,206.701c0,6.555-6.957,6.921-13.511,6.921c-6.555,0-14.18-10.174-14.18-16.728
		s7.625-7.008,14.18-7.008C321.897,189.886,328.853,200.147,328.853,206.701z"/>
	<path style="fill:#A86B38;" d="M291.537,211.58c-4.492,4.774-9.809,0.273-14.583-4.219c-4.774-4.492-3.353-17.127,1.138-21.9
		c4.492-4.774,10.356,0.123,15.128,4.614C297.994,194.567,296.029,206.807,291.537,211.58z"/>
	<path style="fill:#A86B38;" d="M311.609,233.538c0,6.555-6.957,6.921-13.511,6.921c-6.555,0-14.18-10.174-14.18-16.728
		s7.625-7.008,14.18-7.008S311.609,226.983,311.609,233.538z"/>
	<path style="fill:#A86B38;" d="M265.989,218.466c0,6.555-6.957,6.921-13.511,6.921s-14.18-10.174-14.18-16.728
		s7.625-7.008,14.18-7.008C259.032,201.652,265.989,211.911,265.989,218.466z"/>
	<path style="fill:#A86B38;" d="M361.234,200.281c0,6.555-6.957,6.921-13.511,6.921c-6.555,0-14.18-10.174-14.18-16.728
		s7.625-7.008,14.18-7.008C354.278,183.466,361.234,193.726,361.234,200.281z"/>
	<path style="fill:#A86B38;" d="M406.26,223.305c-4.492,4.774-9.81,0.273-14.583-4.219c-4.774-4.492-3.353-17.127,1.138-21.9
		c4.492-4.774,10.356,0.123,15.128,4.614C412.717,206.292,410.752,218.532,406.26,223.305z"/>
	<path style="fill:#A86B38;" d="M382.609,200.092c-4.492,4.774-9.81,0.273-14.583-4.219c-4.774-4.492-3.353-17.127,1.138-21.9
		c4.492-4.774,10.356,0.123,15.128,4.614C389.068,183.078,387.102,195.318,382.609,200.092z"/>
	<path style="fill:#A86B38;" d="M434.738,219.516c-4.492,4.774-9.81,0.273-14.583-4.219c-4.774-4.492-3.353-17.127,1.138-21.9
		c4.492-4.774,10.356,0.123,15.128,4.614C441.195,202.504,439.23,214.743,434.738,219.516z"/>
	<path style="fill:#A86B38;" d="M445.853,251.891c0,6.555-6.957,6.921-13.511,6.921c-6.555,0-14.18-10.174-14.18-16.728
		s7.625-7.008,14.18-7.008C438.896,235.076,445.853,245.337,445.853,251.891z"/>
	<path style="fill:#A86B38;" d="M415.741,182.14c0,6.555-6.957,6.921-13.511,6.921c-6.555,0-14.18-10.174-14.18-16.728
		s7.625-7.008,14.18-7.008C408.783,165.326,415.741,175.586,415.741,182.14z"/>
	<path style="fill:#A86B38;" d="M404.72,254.136c-4.492,4.774-9.81,0.273-14.583-4.219c-4.774-4.492-3.353-17.127,1.138-21.899
		c4.492-4.774,10.356,0.123,15.128,4.614C411.179,237.124,409.213,249.364,404.72,254.136z"/>
	<path style="fill:#A86B38;" d="M353.361,240.742c0,6.555-6.957,6.921-13.511,6.921c-6.555,0-14.18-10.174-14.18-16.728
		s7.625-7.008,14.18-7.008C346.404,223.927,353.361,234.187,353.361,240.742z"/>
	<path style="fill:#A86B38;" d="M229.162,226.537c-4.492,4.774-9.81,0.273-14.583-4.219c-4.774-4.492-3.353-17.127,1.138-21.9
		s10.356,0.123,15.128,4.614C235.62,209.524,233.654,221.764,229.162,226.537z"/>
	<path style="fill:#A86B38;" d="M205.512,211.477c-4.492,4.774-9.81,0.273-14.583-4.219c-4.774-4.492-3.353-17.127,1.138-21.9
		c4.492-4.774,10.356,0.123,15.128,4.614C211.97,194.464,210.004,206.703,205.512,211.477z"/>
	<path style="fill:#A86B38;" d="M19.438,147.836c-0.617-0.347-1.261-0.6-1.914-0.782l-8.261-3.377
		c-2.502,10.785-5.437,21.055-8.13,25.769c-1.543,2.699-1.507,6.021,0.095,8.686c3.824,6.364,10.934,14.874,19.703,19.683
		l4.342-4.547c0.478-0.403,0.922-0.858,1.315-1.377c6.368-8.405,8.731-16.837,7.022-25.061
		C31.09,154.708,20.622,148.504,19.438,147.836z"/>
</g>
<g>
</g>
<g>
</g>
<g>
</g>
<g>
</g>
<g>
</g>
<g>
</g>
<g>
</g>
<g>
</g>
<g>
</g>
<g>
</g>
<g>
</g>
<g>
</g>
<g>
</g>
<g>
</g>
<g>
</g>
</svg>
