<?xml version="1.0" encoding="iso-8859-1"?>
<!-- Generator: Adobe Illustrator 19.0.0, SVG Export Plug-In . SVG Version: 6.00 Build 0)  -->
<svg version="1.1" id="Layer_1" xmlns="http://www.w3.org/2000/svg" xmlns:xlink="http://www.w3.org/1999/xlink" x="0px" y="0px"
	 viewBox="0 0 512.001 512.001" style="enable-background:new 0 0 512.001 512.001;" xml:space="preserve">
<path style="fill:#D9D9DB;" d="M72.067,200.011l-1.272-2.22c-1.889-3.296-5.747-4.922-9.431-3.972
	c-9.77,2.521-21.399,1.701-30.35-2.148c-3.087-1.328-6.667-0.694-9.115,1.608l-0.93,0.875c-1.541,1.45-2.482,3.428-2.634,5.54
	c-0.073,1.025-1.769,25.431,1.364,53.736c4.364,39.431,15.719,66.092,33.747,79.242c1.474,1.074,3.219,1.62,4.974,1.62
	c1.378,0,2.76-0.337,4.02-1.019c2.862-1.551,4.577-4.611,4.404-7.863c-2.016-38.187-2.379-103.721,5.226-117.009
	C73.557,205.8,73.556,202.608,72.067,200.011z"/>
<path style="fill:#ADACB2;" d="M72.067,200.011l-1.272-2.22c-1.889-3.296-5.747-4.922-9.431-3.972
	c-2.138,0.551-4.365,0.934-6.633,1.168c-0.022,3.646-3.871,11.157-5.162,13.411c-7.523,13.144-7.247,77.407-5.29,115.758
	c2.835,3.279,5.889,6.122,9.167,8.513c1.474,1.074,3.219,1.62,4.974,1.62c1.378,0,2.76-0.337,4.02-1.019
	c2.862-1.551,4.577-4.611,4.404-7.863c-2.016-38.187-2.379-103.721,5.226-117.009C73.557,205.8,73.556,202.608,72.067,200.011z"/>
<path style="fill:#B79274;" d="M511.815,367.8c-0.897-9.575-5.865-27.68-29.082-41.358c-27.213-16.034-68.818-5.926-84.756-1.099
	c-41.271-61.106-170.596-178.546-225.587-219.079c-35.07-25.847-71.887-25.037-96.596-19.804
	c-24.448,5.176-45.782,19.413-60.071,40.091c-9.807,14.192-15.087,29.342-15.695,45.028c-0.568,14.642,7.276,27.141,21.519,34.292
	c10.64,5.343,23.501,7.232,35.406,5.891c1.313,13.481,4.85,44.729,12.01,77.129c12.601,57.03,29.645,88.358,52.012,95.552
	c10.969,17.152,26.975,29.406,47.334,35.97c16.723,5.391,32.23,8.064,45.864,8.064c18.033-0.001,32.789-4.679,42.728-13.936
	c5.495-5.115,9.131-11.328,10.77-18.079h230.111c2.043,0,4.019-0.741,5.558-2.089C509.589,388.907,512.836,378.724,511.815,367.8z"
	/>
<g>
	<path style="fill:#89684D;" d="M88.968,350.819c6.826,13.802,14.449,23.488,22.929,29.163
		c-34.092-116.062-26.348-204.08-26.348-204.08s-5.694,31.153-28.596,35.861c1.313,13.481,4.85,44.729,12.01,77.129
		c0.094,0.431,0.192,0.846,0.288,1.273C72.618,304.716,80.404,327.922,88.968,350.819z"/>
	<path style="fill:#89684D;" d="M482.733,326.443c-18.204-10.725-42.839-9.749-61.93-6.486c0.098,0.032,0.19,0.064,0.289,0.096
		c8.037,0.935,28.222,9.748,34.859,13.659c30.463,17.946,28.12,46.622,19.332,54.314l-7.933,8.438h30.433
		c2.043,0,4.019-0.741,5.558-2.089c6.25-5.468,9.495-15.65,8.475-26.574C510.918,358.226,505.95,340.12,482.733,326.443z"/>
</g>
<path d="M59.861,143.828c-5.364,0-9.728-4.356-9.728-9.711c0-5.355,4.364-9.711,9.728-9.711s9.727,4.356,9.727,9.711
	C69.589,139.472,65.225,143.828,59.861,143.828z"/>
<path style="fill:#614B35;" d="M14.191,148.499c-1.33-0.569-4.694-1.648-8.753-2.736C2.182,154.15,0.37,162.78,0.029,171.58
	c-0.339,8.741,2.341,16.708,7.569,23.238c3.777-1.495,7.223-2.952,7.85-3.357c10.972-7.073,16.174-14.931,15.461-23.357
	C29.845,155.535,15.79,149.181,14.191,148.499z"/>
<path style="fill:#89684D;" d="M296.238,380.975c0,0-6.876-26.173-56.226-30.963c-49.349-4.791-56.226-18.39-56.226-18.39
	c13.328,32.217,31.903,36.801,47.398,37.867c2.99,3.956,4.6,7.334,5.304,10.188c0.133,0.416,0.258,0.846,0.369,1.298
	c4.273,17.424-7.172,34.844-34.492,38.442c-15.957,0.139-33.976-2.143-46.939-4.218c4.079,2.007,8.368,3.759,12.884,5.214
	c16.723,5.391,32.23,8.064,45.864,8.064c18.033-0.001,32.789-4.679,42.728-13.936c5.495-5.115,9.131-11.328,10.77-18.079h31.51
	C299.001,392.476,298.381,385.277,296.238,380.975z"/>
<g>
</g>
<g>
</g>
<g>
</g>
<g>
</g>
<g>
</g>
<g>
</g>
<g>
</g>
<g>
</g>
<g>
</g>
<g>
</g>
<g>
</g>
<g>
</g>
<g>
</g>
<g>
</g>
<g>
</g>
</svg>
